<svg version="1.1" xmlns="http://www.w3.org/2000/svg" viewBox="0 0 2399.5891591904337 3503.276018927084" width="2399.5891591904337" height="3503.276018927084">
  <!-- svg-source:excalidraw -->
  
  <defs>
    <style class="style-fonts">
      @font-face {
        font-family: "Virgil";
        src: url("https://excalidraw.com/Virgil.woff2");
      }
      @font-face {
        font-family: "Cascadia";
        src: url("https://excalidraw.com/Cascadia.woff2");
      }
      @font-face {
        font-family: "Assistant";
        src: url("https://excalidraw.com/Assistant-Regular.woff2");
      }
    </style>
    
  </defs>
  <rect x="0" y="0" width="2399.5891591904337" height="3503.276018927084" fill="#ffffff"></rect><g stroke-linecap="round" transform="translate(675.2639286268998 994.3499077184688) rotate(0 100.5 18)"><path d="M147.74 2.08 C160.6 2.87, 173.05 4.41, 181.74 6.48 C190.43 8.54, 197.18 11.69, 199.87 14.46 C202.55 17.24, 201.63 20.65, 197.85 23.15 C194.08 25.66, 186.95 27.63, 177.23 29.49 C167.51 31.34, 153.11 33.15, 139.51 34.28 C125.92 35.42, 110.09 36.32, 95.63 36.27 C81.17 36.23, 65.56 35.45, 52.75 34.03 C39.94 32.62, 27.42 29.94, 18.8 27.78 C10.18 25.61, 3.67 23.31, 1.03 21.05 C-1.61 18.8, -0.85 16.75, 2.96 14.26 C6.77 11.78, 14.17 8.32, 23.88 6.14 C33.6 3.95, 47.61 2.34, 61.24 1.16 C74.87 -0.02, 90.49 -1.21, 105.66 -0.95 C120.83 -0.7, 144.05 1.9, 152.24 2.69 C160.43 3.48, 155.9 3.46, 154.78 3.8 M126.23 0.46 C139.9 1.01, 153.26 2.71, 164.13 4.49 C175.01 6.26, 185.17 8.52, 191.48 11.11 C197.79 13.7, 202.37 17.6, 201.98 20.03 C201.58 22.46, 195.92 23.54, 189.1 25.69 C182.28 27.85, 172.75 31.11, 161.06 32.95 C149.37 34.79, 133.09 36.44, 118.98 36.74 C104.87 37.04, 90.18 35.73, 76.39 34.74 C62.61 33.75, 47.35 32.19, 36.26 30.8 C25.17 29.41, 15.93 28.57, 9.86 26.39 C3.78 24.22, -0.34 20.31, -0.2 17.76 C-0.07 15.21, 4.09 13.29, 10.67 11.09 C17.25 8.89, 27.59 6.35, 39.26 4.58 C50.93 2.81, 66.21 1.37, 80.67 0.48 C95.14 -0.41, 118.39 -0.58, 126.05 -0.75 C133.71 -0.92, 126.96 -1.25, 126.63 -0.54" stroke="#1e1e1e" stroke-width="2" fill="none"></path></g><g stroke-linecap="round"><g transform="translate(673.2639286268998 1012.3499077184688) rotate(0 1 90)"><path d="M1.11 -0.77 C1.53 29.26, 2.62 149.5, 2.79 179.67 M0.23 1.43 C0.55 31.68, 2.06 151, 2.25 181.03" stroke="#1e1e1e" stroke-width="2" fill="none"></path></g></g><mask></mask><g stroke-linecap="round"><g transform="translate(877.75536466983 1013.2220817754654) rotate(0 1 90.00000000000001)"><path d="M0.7 -0.36 C0.86 29.8, 1.86 150.43, 2.15 180.57 M-0.39 -1.59 C-0.48 28.24, 0.9 148.75, 1.28 178.75" stroke="#1e1e1e" stroke-width="2" fill="none"></path></g></g><mask></mask><g stroke-linecap="round" transform="translate(676.7639286268998 1175.3499077184688) rotate(0 100.5 18)"><path d="M130.48 1.29 C144.26 1.85, 158.57 3.06, 169.14 4.71 C179.71 6.36, 188.7 8.72, 193.9 11.19 C199.1 13.66, 201.34 16.74, 200.34 19.53 C199.34 22.32, 194.89 25.83, 187.88 27.93 C180.88 30.02, 170.37 30.87, 158.32 32.1 C146.26 33.33, 130.16 34.93, 115.53 35.3 C100.91 35.67, 84.46 34.97, 70.59 34.31 C56.72 33.65, 42.78 32.76, 32.32 31.31 C21.86 29.86, 13.35 27.95, 7.85 25.6 C2.35 23.24, -1.56 20.07, -0.69 17.18 C0.19 14.3, 5.68 10.68, 13.11 8.28 C20.53 5.88, 31.85 4.21, 43.88 2.76 C55.91 1.31, 68.16 -0.23, 85.28 -0.43 C102.41 -0.63, 133.93 0.8, 146.63 1.56 C159.32 2.31, 162.19 3.87, 161.46 4.12 M55.24 0.53 C66.93 -1.25, 86.07 -1.23, 100.56 -1.21 C115.06 -1.19, 129.3 -0.71, 142.21 0.64 C155.13 2, 168.86 4.82, 178.07 6.91 C187.28 9, 193.78 10.6, 197.46 13.16 C201.15 15.72, 203.29 19.45, 200.21 22.29 C197.12 25.13, 188.01 28, 178.97 30.17 C169.94 32.35, 158.84 34.26, 145.98 35.35 C133.12 36.44, 116.52 36.92, 101.82 36.69 C87.12 36.46, 71.13 35.37, 57.78 33.98 C44.43 32.58, 31.02 30.23, 21.73 28.32 C12.43 26.41, 5.18 24.7, 2.01 22.51 C-1.15 20.32, -0.69 17.78, 2.74 15.18 C6.17 12.57, 13.98 8.88, 22.6 6.87 C31.22 4.86, 48.54 3.98, 54.46 3.15 C60.39 2.31, 56.95 2.02, 58.17 1.84" stroke="#1e1e1e" stroke-width="2" fill="none"></path></g><g transform="translate(654.2639286268998 1240.3499077184688) rotate(0 138.37989807128906 12.5)"><text x="0" y="17.52" font-family="Virgil, Segoe UI Emoji" font-size="20px" fill="#1e1e1e" text-anchor="start" style="white-space: pre;" direction="ltr" dominant-baseline="alphabetic">Base de données: database</text></g><g transform="translate(591.2639286268998 1304.3499077184688) rotate(0 246.89981079101562 25)"><text x="0" y="17.52" font-family="Virgil, Segoe UI Emoji" font-size="20px" fill="#1e1e1e" text-anchor="start" style="white-space: pre;" direction="ltr" dominant-baseline="alphabetic">Système de Gestion de Base de Données (SGBD)</text><text x="0" y="42.519999999999996" font-family="Virgil, Segoe UI Emoji" font-size="20px" fill="#1e1e1e" text-anchor="start" style="white-space: pre;" direction="ltr" dominant-baseline="alphabetic">Database Management System (DBMS)</text></g><g stroke-linecap="round" transform="translate(329.2639286268997 1016.3499077184688) rotate(0 126 62)"><path d="M31 0 C104.28 0.92, 174.06 1.22, 221 0 M31 0 C83.23 0.28, 134.48 -0.7, 221 0 M221 0 C240.19 1.57, 251.62 9.78, 252 31 M221 0 C241.15 -1.72, 250.18 10.67, 252 31 M252 31 C252.57 48.66, 252.14 68.08, 252 93 M252 31 C251.53 47.29, 252.2 62.71, 252 93 M252 93 C251.42 115.37, 240.59 122.01, 221 124 M252 93 C253.28 113.53, 241.71 124.16, 221 124 M221 124 C171.14 124.71, 124.51 121.77, 31 124 M221 124 C174.18 125.87, 129.64 124.9, 31 124 M31 124 C9.92 125.79, -1.28 112.07, 0 93 M31 124 C10.75 122.5, 1.18 111.72, 0 93 M0 93 C1.39 74.24, -0.88 53.88, 0 31 M0 93 C0.13 78.09, -0.33 60.3, 0 31 M0 31 C-1.94 11.16, 11.7 -0.5, 31 0 M0 31 C0.58 10.63, 9.1 1.18, 31 0" stroke="#1e1e1e" stroke-width="2" fill="none"></path></g><g transform="translate(365.2639286268997 1055.3499077184688) rotate(0 50.979949951171875 12.5)"><text x="0" y="17.52" font-family="Virgil, Segoe UI Emoji" font-size="20px" fill="#1e1e1e" text-anchor="start" style="white-space: pre;" direction="ltr" dominant-baseline="alphabetic">Application</text></g><g stroke-linecap="round"><g transform="translate(546.2639286268998 1082.3499077184688) rotate(0 73 2.5)"><path d="M0.1 -0.43 C24.59 0.35, 121.67 4.71, 145.97 5.64 M-1.31 -1.7 C23.11 -1.35, 120.61 2.48, 145.01 3.86" stroke="#1e1e1e" stroke-width="2" fill="none"></path></g><g transform="translate(546.2639286268998 1082.3499077184688) rotate(0 73 2.5)"><path d="M121.15 11.32 C125.58 9.62, 132.57 7.87, 145.01 3.86 M121.15 11.32 C127.89 9.05, 136.71 6.02, 145.01 3.86" stroke="#1e1e1e" stroke-width="2" fill="none"></path></g><g transform="translate(546.2639286268998 1082.3499077184688) rotate(0 73 2.5)"><path d="M121.94 -5.76 C126.34 -3.73, 133.16 -1.76, 145.01 3.86 M121.94 -5.76 C128.28 -2.68, 136.85 -0.36, 145.01 3.86" stroke="#1e1e1e" stroke-width="2" fill="none"></path></g></g><mask></mask><g stroke-linecap="round" transform="translate(962.2639286268998 1032.3499077184688) rotate(0 125 48)"><path d="M24 0 C73.88 0.01, 124.91 -2.33, 226 0 M24 0 C75.97 1.81, 127.51 1.99, 226 0 M226 0 C243.27 -1.13, 248.51 7.81, 250 24 M226 0 C240.43 -1.4, 251.51 9.16, 250 24 M250 24 C249.02 38.27, 249.64 52.04, 250 72 M250 24 C249.86 37.89, 250.22 51.87, 250 72 M250 72 C249.61 86.49, 242.04 97.71, 226 96 M250 72 C251.23 89.42, 242.93 97.22, 226 96 M226 96 C164.3 95.33, 100.42 95.85, 24 96 M226 96 C163.57 95.17, 102.37 96, 24 96 M24 96 C6.62 97.88, -0.58 86.54, 0 72 M24 96 C8 93.73, 1.66 86.42, 0 72 M0 72 C1.32 52.89, -1.5 38.04, 0 24 M0 72 C0.37 60.78, -0.16 51.47, 0 24 M0 24 C-0.66 7.78, 9.51 0.45, 24 0 M0 24 C1.88 9.41, 8.28 -2.06, 24 0" stroke="#1e1e1e" stroke-width="2" fill="none"></path></g><g transform="translate(996.2639286268998 1062.3499077184688) rotate(0 47.119964599609375 12.5)"><text x="0" y="17.52" font-family="Virgil, Segoe UI Emoji" font-size="20px" fill="#1e1e1e" text-anchor="start" style="white-space: pre;" direction="ltr" dominant-baseline="alphabetic">DB Client</text></g><g stroke-linecap="round"><g transform="translate(979.2639286268998 1090.3499077184688) rotate(0 -62.5 -2)"><path d="M1.09 -0.33 C-19.62 -1.25, -102.92 -3.94, -123.82 -4.4 M0.2 -1.55 C-20.6 -1.78, -103.33 -2.5, -124.15 -3.07" stroke="#1e1e1e" stroke-width="2" fill="none"></path></g><g transform="translate(979.2639286268998 1090.3499077184688) rotate(0 -62.5 -2)"><path d="M-100.52 -11.23 C-108.95 -6.31, -117.01 -4.43, -124.15 -3.07 M-100.52 -11.23 C-110.45 -8.09, -118.25 -4.29, -124.15 -3.07" stroke="#1e1e1e" stroke-width="2" fill="none"></path></g><g transform="translate(979.2639286268998 1090.3499077184688) rotate(0 -62.5 -2)"><path d="M-100.81 5.87 C-109.29 5.04, -117.25 1.17, -124.15 -3.07 M-100.81 5.87 C-110.46 2.58, -118.16 -0.04, -124.15 -3.07" stroke="#1e1e1e" stroke-width="2" fill="none"></path></g></g><mask></mask><g transform="translate(602.2639286268998 1052.3499077184688) rotate(0 19.11998748779297 12.5)"><text x="0" y="17.52" font-family="Virgil, Segoe UI Emoji" font-size="20px" fill="#1e1e1e" text-anchor="start" style="white-space: pre;" direction="ltr" dominant-baseline="alphabetic">SQL</text></g><g stroke-linecap="round" transform="translate(191.2639286268997 1008.3499077184688) rotate(0 20.5 13)"><path d="M18.98 -0.32 C23.12 -0.72, 28.79 0.31, 32.27 1.93 C35.75 3.55, 38.79 6.62, 39.85 9.42 C40.92 12.21, 40.4 16.09, 38.66 18.71 C36.93 21.32, 33.46 23.98, 29.45 25.12 C25.43 26.27, 18.82 26.29, 14.6 25.56 C10.37 24.83, 6.43 22.95, 4.09 20.72 C1.75 18.48, 0.26 14.94, 0.56 12.14 C0.85 9.35, 2.69 6.02, 5.88 3.97 C9.06 1.92, 17.15 0.49, 19.65 -0.13 C22.14 -0.76, 20.78 0.02, 20.84 0.22 M16.76 -0.44 C20.73 -0.97, 26.46 0.16, 30.24 1.76 C34.01 3.36, 37.94 6.47, 39.43 9.17 C40.91 11.88, 40.52 15.56, 39.16 17.97 C37.8 20.38, 34.98 22.27, 31.26 23.62 C27.54 24.98, 21.26 26.53, 16.83 26.09 C12.4 25.65, 7.39 23.06, 4.67 20.97 C1.95 18.88, 0.6 16.28, 0.52 13.55 C0.45 10.81, 1.41 6.73, 4.24 4.55 C7.07 2.36, 15.3 1.18, 17.5 0.45 C19.71 -0.29, 17.48 0.08, 17.46 0.13" stroke="#1e1e1e" stroke-width="2" fill="none"></path></g><g stroke-linecap="round"><g transform="translate(212.2639286268997 1033.3499077184688) rotate(0 -1 30.5)"><path d="M-0.95 -0.38 C-1.37 9.62, -1.27 50.29, -1.57 60.67 M0.75 -1.63 C0.13 8.5, -2.12 51.77, -2.29 62.03" stroke="#1e1e1e" stroke-width="2" fill="none"></path></g></g><mask></mask><g stroke-linecap="round"><g transform="translate(198.2639286268997 1054.3499077184688) rotate(0 19.5 0.5)"><path d="M0.47 0.04 C6.85 0.23, 32.35 1.08, 38.81 1.16 M0.05 -0.41 C6.3 -0.4, 31.79 0.06, 38.28 0.27" stroke="#1e1e1e" stroke-width="2" fill="none"></path></g></g><mask></mask><g stroke-linecap="round"><g transform="translate(210.2639286268997 1087.3499077184688) rotate(0 -13 11)"><path d="M-0.71 -0.86 C-5.33 3.04, -22.83 18.63, -27.06 22.61 M1.11 1.3 C-3.2 4.92, -20.23 17.49, -24.91 20.81" stroke="#1e1e1e" stroke-width="2" fill="none"></path></g></g><mask></mask><g stroke-linecap="round"><g transform="translate(210.2639286268997 1088.3499077184688) rotate(0 9.5 12)"><path d="M0.33 -0.02 C3.63 4, 16.4 20.92, 19.53 24.93 M-0.95 -1.08 C2.26 2.55, 15.64 18.88, 18.87 23.29" stroke="#1e1e1e" stroke-width="2" fill="none"></path></g></g><mask></mask><g stroke-linecap="round" transform="translate(1290.3894722858938 1027.885428970922) rotate(0 20.5 13)"><path d="M19.58 0.01 C23.81 -0.29, 29.67 0.77, 33.16 2.48 C36.65 4.19, 39.61 7.54, 40.52 10.27 C41.43 13.01, 40.61 16.5, 38.63 18.89 C36.64 21.28, 32.68 23.51, 28.59 24.61 C24.5 25.71, 18.35 26.29, 14.06 25.49 C9.77 24.69, 5.24 22.19, 2.85 19.83 C0.45 17.47, -0.96 14.14, -0.29 11.35 C0.37 8.57, 3.31 5.05, 6.81 3.12 C10.31 1.18, 18.31 0.21, 20.7 -0.25 C23.08 -0.7, 21.15 0.1, 21.11 0.38 M17.12 0.34 C21 -0.27, 26.64 0.8, 30.32 2.08 C34 3.36, 37.6 5.32, 39.2 8.02 C40.79 10.71, 41.23 15.52, 39.9 18.25 C38.57 20.97, 35.16 23.03, 31.23 24.36 C27.31 25.68, 20.65 26.73, 16.35 26.21 C12.05 25.68, 8.27 23.33, 5.45 21.21 C2.62 19.09, -0.58 16.15, -0.59 13.47 C-0.6 10.8, 2.55 7.33, 5.37 5.14 C8.2 2.95, 14.45 1.13, 16.36 0.33 C18.27 -0.47, 16.77 0.06, 16.84 0.34" stroke="#1e1e1e" stroke-width="2" fill="none"></path></g><g stroke-linecap="round"><g transform="translate(1311.3894722858938 1052.885428970922) rotate(0 -1 30.5)"><path d="M-0.16 -0.98 C-0.53 9.15, -1.73 50.1, -2.03 60.44 M-1.71 1.12 C-2.24 11.43, -2.82 51.47, -3 61.68" stroke="#1e1e1e" stroke-width="2" fill="none"></path></g></g><mask></mask><g stroke-linecap="round"><g transform="translate(1297.3894722858938 1073.885428970922) rotate(0 19.5 0.5)"><path d="M-0.01 -0.26 C6.5 -0.01, 32.55 0.82, 39 1.02 M-0.69 0.8 C5.76 1.18, 32.09 1.61, 38.57 1.73" stroke="#1e1e1e" stroke-width="2" fill="none"></path></g></g><mask></mask><g stroke-linecap="round"><g transform="translate(1309.3894722858938 1106.885428970922) rotate(0 -13 11)"><path d="M0 0.05 C-4.44 3.79, -22.33 18.23, -26.68 21.9 M-1.45 -0.97 C-5.5 3.02, -20.09 19.32, -24.33 23.39" stroke="#1e1e1e" stroke-width="2" fill="none"></path></g></g><mask></mask><g stroke-linecap="round"><g transform="translate(1309.3894722858938 1107.885428970922) rotate(0 9.5 12)"><path d="M-0.68 -0.1 C2.47 3.91, 15.71 19.9, 18.9 24.09 M1.16 -1.19 C4.14 3.02, 15.19 21.61, 17.9 25.68" stroke="#1e1e1e" stroke-width="2" fill="none"></path></g></g><mask></mask><g transform="translate(155.2639286268997 1145.3499077184688) rotate(0 52.99994659423828 25)"><text x="0" y="17.52" font-family="Virgil, Segoe UI Emoji" font-size="20px" fill="#1e1e1e" text-anchor="start" style="white-space: pre;" direction="ltr" dominant-baseline="alphabetic">Utilisateur</text><text x="0" y="42.519999999999996" font-family="Virgil, Segoe UI Emoji" font-size="20px" fill="#1e1e1e" text-anchor="start" style="white-space: pre;" direction="ltr" dominant-baseline="alphabetic">Appli</text></g><g transform="translate(1260.2639286268998 1147.3499077184688) rotate(0 83.37993621826172 50)"><text x="0" y="17.52" font-family="Virgil, Segoe UI Emoji" font-size="20px" fill="#1e1e1e" text-anchor="start" style="white-space: pre;" direction="ltr" dominant-baseline="alphabetic">Utilisateur DB</text><text x="0" y="42.519999999999996" font-family="Virgil, Segoe UI Emoji" font-size="20px" fill="#1e1e1e" text-anchor="start" style="white-space: pre;" direction="ltr" dominant-baseline="alphabetic">Requête / Query</text><text x="0" y="67.52" font-family="Virgil, Segoe UI Emoji" font-size="20px" fill="#1e1e1e" text-anchor="start" style="white-space: pre;" direction="ltr" dominant-baseline="alphabetic">Maintenance</text><text x="0" y="92.52" font-family="Virgil, Segoe UI Emoji" font-size="20px" fill="#1e1e1e" text-anchor="start" style="white-space: pre;" direction="ltr" dominant-baseline="alphabetic">Administration</text></g><g transform="translate(893.2639286268998 1054.3499077184688) rotate(0 19.11998748779297 12.5)"><text x="0" y="17.52" font-family="Virgil, Segoe UI Emoji" font-size="20px" fill="#1e1e1e" text-anchor="start" style="white-space: pre;" direction="ltr" dominant-baseline="alphabetic">SQL</text></g><g stroke-linecap="round"><g transform="translate(632.2639286268998 1438.3499077184688) rotate(0 59 -26)"><path d="M-0.52 0.84 C18.92 -8.05, 97.97 -43.32, 117.67 -52.2 M1.41 0.24 C20.57 -7.96, 97.32 -42.17, 116.55 -50.76" stroke="#1e1e1e" stroke-width="2" fill="none"></path></g><g transform="translate(632.2639286268998 1438.3499077184688) rotate(0 59 -26)"><path d="M98.57 -33.39 C106.75 -40.57, 111.96 -47.22, 116.55 -50.76 M98.57 -33.39 C103.54 -37.18, 107.5 -42.57, 116.55 -50.76" stroke="#1e1e1e" stroke-width="2" fill="none"></path></g><g transform="translate(632.2639286268998 1438.3499077184688) rotate(0 59 -26)"><path d="M91.61 -49 C102.63 -50.12, 110.53 -50.74, 116.55 -50.76 M91.61 -49 C98.46 -48.59, 104.27 -49.84, 116.55 -50.76" stroke="#1e1e1e" stroke-width="2" fill="none"></path></g></g><mask></mask><g transform="translate(771.2639286268998 1387.3499077184688) rotate(0 100.71993255615234 25)"><text x="0" y="17.52" font-family="Virgil, Segoe UI Emoji" font-size="20px" fill="#1e1e1e" text-anchor="start" style="white-space: pre;" direction="ltr" dominant-baseline="alphabetic">SGBDR (Relationnel)</text><text x="0" y="42.519999999999996" font-family="Virgil, Segoe UI Emoji" font-size="20px" fill="#1e1e1e" text-anchor="start" style="white-space: pre;" direction="ltr" dominant-baseline="alphabetic">RDBMS (Relational)</text></g><g transform="translate(1025.2639286268998 1399.3499077184688) rotate(0 19.11998748779297 12.5)"><text x="0" y="17.52" font-family="Virgil, Segoe UI Emoji" font-size="20px" fill="#1e1e1e" text-anchor="start" style="white-space: pre;" direction="ltr" dominant-baseline="alphabetic">SQL</text></g><g stroke-linecap="round"><g transform="translate(638.2639286268998 1472.3499077184688) rotate(0 60 20.5)"><path d="M-0.37 0.69 C19.5 7.51, 99.28 35.18, 119.41 41.88 M1.63 0 C21.88 6.42, 102.1 33.2, 121.82 40.22" stroke="#1e1e1e" stroke-width="2" fill="none"></path></g><g transform="translate(638.2639286268998 1472.3499077184688) rotate(0 60 20.5)"><path d="M96.82 40.69 C105.88 39.64, 114.11 41.22, 121.82 40.22 M96.82 40.69 C103.47 39.63, 110.85 40.95, 121.82 40.22" stroke="#1e1e1e" stroke-width="2" fill="none"></path></g><g transform="translate(638.2639286268998 1472.3499077184688) rotate(0 60 20.5)"><path d="M102.37 24.51 C109.8 28.57, 116.28 35.27, 121.82 40.22 M102.37 24.51 C107.37 28.13, 113.15 34.13, 121.82 40.22" stroke="#1e1e1e" stroke-width="2" fill="none"></path></g></g><mask></mask><g transform="translate(784.2639286268998 1500.3499077184688) rotate(0 172.07989501953125 12.5)"><text x="0" y="17.52" font-family="Virgil, Segoe UI Emoji" font-size="20px" fill="#1e1e1e" text-anchor="start" style="white-space: pre;" direction="ltr" dominant-baseline="alphabetic">NOSQL DB: mongodb, cassandra, ...</text></g><g transform="translate(819.2639286268998 1542.3499077184688) rotate(0 46.259971618652344 12.5)"><text x="0" y="17.52" font-family="Virgil, Segoe UI Emoji" font-size="20px" fill="#1e1e1e" text-anchor="start" style="white-space: pre;" direction="ltr" dominant-baseline="alphabetic">Big Data</text></g><g transform="translate(366.2639286268997 1626.3499077184688) rotate(0 318.1497802734375 25)"><text x="0" y="17.52" font-family="Virgil, Segoe UI Emoji" font-size="20px" fill="#1e1e1e" text-anchor="start" style="white-space: pre;" direction="ltr" dominant-baseline="alphabetic">Clé primaire / primary key (PK) : unique par table + non NULL</text><text x="0" y="42.519999999999996" font-family="Virgil, Segoe UI Emoji" font-size="20px" fill="#1e1e1e" text-anchor="start" style="white-space: pre;" direction="ltr" dominant-baseline="alphabetic">clé étrangère / foreign key (FK) : référence un PK d'une autre </text></g><g transform="translate(992.2639286268998 1148.3499077184688) rotate(0 59.01997375488281 12.5)"><text x="0" y="17.52" font-family="Virgil, Segoe UI Emoji" font-size="20px" fill="#1e1e1e" text-anchor="start" style="white-space: pre;" direction="ltr" dominant-baseline="alphabetic">GUI vs CLI</text></g><g transform="translate(388.2639286268997 1747.3499077184688) rotate(0 545.2717895507812 35)"><text x="0" y="24.528" font-family="Virgil, Segoe UI Emoji" font-size="28px" fill="#1e1e1e" text-anchor="start" style="white-space: pre;" direction="ltr" dominant-baseline="alphabetic">Langage SQL</text><text x="0" y="59.528" font-family="Virgil, Segoe UI Emoji" font-size="28px" fill="#1e1e1e" text-anchor="start" style="white-space: pre;" direction="ltr" dominant-baseline="alphabetic">- LDD / DDL (Langage de Définition de Données / Data Definition Language)</text></g><g transform="translate(488.2639286268997 1825.3499077184688) rotate(0 57.819984436035156 52.5)"><text x="0" y="24.528" font-family="Virgil, Segoe UI Emoji" font-size="28px" fill="#1e1e1e" text-anchor="start" style="white-space: pre;" direction="ltr" dominant-baseline="alphabetic">CREATE</text><text x="0" y="59.528" font-family="Virgil, Segoe UI Emoji" font-size="28px" fill="#1e1e1e" text-anchor="start" style="white-space: pre;" direction="ltr" dominant-baseline="alphabetic">ALTER</text><text x="0" y="94.52799999999999" font-family="Virgil, Segoe UI Emoji" font-size="28px" fill="#1e1e1e" text-anchor="start" style="white-space: pre;" direction="ltr" dominant-baseline="alphabetic">DROP</text></g><g transform="translate(411.2639286268997 1966.3499077184688) rotate(0 582.8897705078125 210)"><text x="0" y="24.528" font-family="Virgil, Segoe UI Emoji" font-size="28px" fill="#1e1e1e" text-anchor="start" style="white-space: pre;" direction="ltr" dominant-baseline="alphabetic">- LMD / DML (Langage de Manipulation de Données / Data Manipulation Language)</text><text x="0" y="59.528" font-family="Virgil, Segoe UI Emoji" font-size="28px" fill="#1e1e1e" text-anchor="start" style="white-space: pre;" direction="ltr" dominant-baseline="alphabetic">      SELECT:  (query / requete)</text><text x="0" y="94.52799999999999" font-family="Virgil, Segoe UI Emoji" font-size="28px" fill="#1e1e1e" text-anchor="start" style="white-space: pre;" direction="ltr" dominant-baseline="alphabetic">      INSERT</text><text x="0" y="129.528" font-family="Virgil, Segoe UI Emoji" font-size="28px" fill="#1e1e1e" text-anchor="start" style="white-space: pre;" direction="ltr" dominant-baseline="alphabetic">      UPDATE</text><text x="0" y="164.528" font-family="Virgil, Segoe UI Emoji" font-size="28px" fill="#1e1e1e" text-anchor="start" style="white-space: pre;" direction="ltr" dominant-baseline="alphabetic">      DELETE</text><text x="0" y="199.528" font-family="Virgil, Segoe UI Emoji" font-size="28px" fill="#1e1e1e" text-anchor="start" style="white-space: pre;" direction="ltr" dominant-baseline="alphabetic">- Transactions</text><text x="0" y="234.528" font-family="Virgil, Segoe UI Emoji" font-size="28px" fill="#1e1e1e" text-anchor="start" style="white-space: pre;" direction="ltr" dominant-baseline="alphabetic">       COMMIT</text><text x="0" y="269.528" font-family="Virgil, Segoe UI Emoji" font-size="28px" fill="#1e1e1e" text-anchor="start" style="white-space: pre;" direction="ltr" dominant-baseline="alphabetic">       ROLLBACK</text><text x="0" y="304.528" font-family="Virgil, Segoe UI Emoji" font-size="28px" fill="#1e1e1e" text-anchor="start" style="white-space: pre;" direction="ltr" dominant-baseline="alphabetic">       BEGIN</text><text x="0" y="339.528" font-family="Virgil, Segoe UI Emoji" font-size="28px" fill="#1e1e1e" text-anchor="start" style="white-space: pre;" direction="ltr" dominant-baseline="alphabetic">- Privileges</text><text x="0" y="374.528" font-family="Virgil, Segoe UI Emoji" font-size="28px" fill="#1e1e1e" text-anchor="start" style="white-space: pre;" direction="ltr" dominant-baseline="alphabetic">        GRANT</text><text x="0" y="409.528" font-family="Virgil, Segoe UI Emoji" font-size="28px" fill="#1e1e1e" text-anchor="start" style="white-space: pre;" direction="ltr" dominant-baseline="alphabetic">        REVOKE</text></g><g transform="translate(403.2639286268997 2475.349907718469) rotate(0 67.57796478271484 17.5)"><text x="0" y="24.528" font-family="Virgil, Segoe UI Emoji" font-size="28px" fill="#1e1e1e" text-anchor="start" style="white-space: pre;" direction="ltr" dominant-baseline="alphabetic">Projection</text></g><g stroke-linecap="round" transform="translate(593.2639286268998 2484.349907718469) rotate(0 200 183)"><path d="M32 0 C101.4 -1.79, 172.99 -1.63, 368 0 M32 0 C134.54 1.75, 238.79 1.63, 368 0 M368 0 C389.48 -1.34, 399.94 11.83, 400 32 M368 0 C390.59 -1.59, 399.73 8.78, 400 32 M400 32 C400.35 123.94, 400.86 212.09, 400 334 M400 32 C401.91 151.96, 402.49 271.37, 400 334 M400 334 C399.8 355.52, 389.6 364.78, 368 366 M400 334 C399.22 354.48, 389.83 366.45, 368 366 M368 366 C243.9 363.54, 116.65 363.68, 32 366 M368 366 C285.19 365.16, 203.75 366.16, 32 366 M32 366 C10.67 366.3, 0.61 355.91, 0 334 M32 366 C9.3 363.85, 1.01 355, 0 334 M0 334 C0.06 213.4, 1.65 95.16, 0 32 M0 334 C2.51 226.57, 2.5 118.49, 0 32 M0 32 C1.59 12.19, 12.4 1.88, 32 0 M0 32 C-1.43 11.71, 12.04 2.08, 32 0" stroke="#1e1e1e" stroke-width="2" fill="none"></path></g><g transform="translate(616.2639286268998 2516.349907718469) rotate(0 177.72991943359375 17.5)"><text x="0" y="24.528" font-family="Virgil, Segoe UI Emoji" font-size="28px" fill="#1e1e1e" text-anchor="start" style="white-space: pre;" direction="ltr" dominant-baseline="alphabetic">id  title year duration ....</text></g><g stroke-linecap="round"><g transform="translate(596.2639286268998 2556.349907718469) rotate(0 199.5 0.5)"><path d="M0.38 -0.97 C67.22 -0.75, 333.42 1.55, 399.87 1.81 M-0.88 1.14 C65.98 0.98, 332.84 0.02, 399.38 0.11" stroke="#1e1e1e" stroke-width="2" fill="none"></path></g></g><mask></mask><g stroke-linecap="round" transform="translate(651.2639286268998 2483.349907718469) rotate(0 78 184.5)"><path d="M32 0 C50.05 -0.18, 69.69 0.81, 124 0 M32 0 C53.32 0.22, 74.41 1.08, 124 0 M124 0 C144.39 -1, 154.26 10.59, 156 32 M124 0 C144.8 0.15, 154.23 9.98, 156 32 M156 32 C156.2 109.12, 158.16 185.27, 156 337 M156 32 C156.42 115.14, 156.43 198.41, 156 337 M156 337 C156.98 358.59, 145.64 369.68, 124 369 M156 337 C155.3 356.21, 146.78 367.04, 124 369 M124 369 C103.85 369.44, 79.9 369.47, 32 369 M124 369 C90.55 368.43, 58.79 368.07, 32 369 M32 369 C11.83 368.73, 0.46 356.97, 0 337 M32 369 C12.58 370.9, -0.28 357.96, 0 337 M0 337 C1.3 227.86, -0.28 121.31, 0 32 M0 337 C0.95 261.49, 1.39 186.93, 0 32 M0 32 C-1.11 12.1, 9.47 0.23, 32 0 M0 32 C0.88 12.93, 10.92 -1.92, 32 0" stroke="#1971c2" stroke-width="2" fill="none"></path></g><g transform="translate(676.2639286268998 2449.349907718469) rotate(0 258.70587158203125 17.5)"><text x="0" y="24.528" font-family="Virgil, Segoe UI Emoji" font-size="28px" fill="#1971c2" text-anchor="start" style="white-space: pre;" direction="ltr" dominant-baseline="alphabetic">projection sur les colonnes title, year</text></g><g stroke-linecap="round" transform="translate(1638.9993175967222 1060.3940369074692) rotate(0 141.8966577841718 122.13389207606997)"><path d="M154.74 1.16 C169.41 0.37, 184.61 5.05, 198.65 10.2 C212.69 15.34, 227.56 23.09, 239 32.04 C250.44 41, 259.99 52.05, 267.3 63.92 C274.6 75.8, 280.39 89.98, 282.83 103.27 C285.27 116.56, 284.73 130.9, 281.94 143.69 C279.15 156.48, 273.61 168.57, 266.07 180.02 C258.52 191.47, 247.86 203.18, 236.68 212.37 C225.5 221.57, 213.02 230.05, 199 235.19 C184.97 240.33, 167.94 242.36, 152.54 243.22 C137.14 244.07, 121.25 243.65, 106.59 240.32 C91.93 236.99, 77.44 230.61, 64.58 223.24 C51.71 215.86, 38.85 206.32, 29.4 196.08 C19.95 185.84, 12.75 174.07, 7.88 161.79 C3.02 149.5, 0.09 135.65, 0.22 122.36 C0.35 109.07, 3.82 94.54, 8.68 82.07 C13.54 69.59, 19.95 58.06, 29.39 47.54 C38.83 37.01, 52.15 26.17, 65.34 18.93 C78.54 11.68, 93.41 7.22, 108.57 4.07 C123.73 0.92, 147.86 0.18, 156.31 0.02 C164.76 -0.14, 159.29 1.01, 159.25 3.12 M134.65 -0.21 C148.73 -2.68, 165.04 0.4, 179.54 4.01 C194.04 7.62, 209.12 13.83, 221.66 21.45 C234.2 29.08, 245.38 39.01, 254.76 49.77 C264.13 60.54, 272.9 73.44, 277.91 86.06 C282.91 98.68, 285.21 112.4, 284.78 125.52 C284.35 138.64, 281 152.25, 275.31 164.77 C269.62 177.29, 260.62 190.18, 250.64 200.65 C240.66 211.11, 228.45 220.63, 215.41 227.56 C202.37 234.49, 187.06 239.51, 172.4 242.22 C157.74 244.93, 142.7 245.43, 127.46 243.84 C112.21 242.24, 94.76 238.33, 80.93 232.66 C67.09 226.99, 55.55 218.83, 44.46 209.83 C33.38 200.83, 21.7 190.6, 14.41 178.66 C7.12 166.72, 2.54 151.43, 0.74 138.18 C-1.07 124.92, 0.62 111.76, 3.59 99.13 C6.56 86.51, 10.9 74.12, 18.55 62.41 C26.2 50.7, 38.05 37.97, 49.5 28.88 C60.95 19.79, 73.04 12.67, 87.24 7.87 C101.44 3.08, 126.98 1.19, 134.7 0.11 C142.42 -0.96, 133.33 -0.8, 133.56 1.42" stroke="#1971c2" stroke-width="2" fill="none"></path></g><g transform="translate(1711.7262954025375 1166.3224611028954) rotate(0 77.05597686767578 17.5)"><text x="0" y="24.528" font-family="Virgil, Segoe UI Emoji" font-size="28px" fill="#1971c2" text-anchor="start" style="white-space: pre;" direction="ltr" dominant-baseline="alphabetic">1 database</text></g><g transform="translate(1702.2401678626484 1326.7961186526832) rotate(0 104.1599578857423 17.5)"><text x="0" y="24.528" font-family="Virgil, Segoe UI Emoji" font-size="28px" fill="#1971c2" text-anchor="start" style="white-space: pre;" direction="ltr" dominant-baseline="alphabetic">instance oracle</text></g><g transform="translate(1657.181062048176 1387.665437033637) rotate(0 155.721954345703 52.5)"><text x="0" y="24.528" font-family="Virgil, Segoe UI Emoji" font-size="28px" fill="#1971c2" text-anchor="start" style="white-space: pre;" direction="ltr" dominant-baseline="alphabetic">oracle =&gt; v 11R2</text><text x="0" y="59.528" font-family="Virgil, Segoe UI Emoji" font-size="28px" fill="#1971c2" text-anchor="start" style="white-space: pre;" direction="ltr" dominant-baseline="alphabetic">        opt v12 =&gt; v19</text><text x="0" y="94.52799999999999" font-family="Virgil, Segoe UI Emoji" font-size="28px" fill="#1971c2" text-anchor="start" style="white-space: pre;" direction="ltr" dominant-baseline="alphabetic"></text></g><g stroke-linecap="round" transform="translate(2105.7958436220897 1068.694398504872) rotate(0 141.8966577841718 122.13389207606997)"><path d="M126.71 1.03 C140.86 -2.25, 157.63 0.24, 172.64 3.07 C187.66 5.9, 203.61 11.01, 216.81 18.02 C230.02 25.03, 242.3 34.9, 251.88 45.13 C261.46 55.36, 269 67, 274.28 79.41 C279.56 91.82, 283.19 106.31, 283.56 119.59 C283.94 132.87, 281.08 146.67, 276.55 159.09 C272.02 171.5, 265.41 183.5, 256.36 194.07 C247.31 204.65, 234.94 214.83, 222.25 222.54 C209.55 230.25, 194.83 236.75, 180.22 240.32 C165.62 243.89, 149.91 244.93, 134.61 243.98 C119.32 243.04, 102.74 239.55, 88.44 234.66 C74.14 229.78, 60.34 223.29, 48.8 214.68 C37.27 206.08, 26.84 194.53, 19.22 183.05 C11.6 171.57, 5.92 158.77, 3.1 145.8 C0.27 132.83, 0.33 118.53, 2.27 105.24 C4.21 91.95, 7.86 77.85, 14.73 66.06 C21.6 54.28, 32.5 43.45, 43.49 34.53 C54.49 25.61, 66.11 18.2, 80.7 12.55 C95.28 6.89, 121.96 2.13, 130.99 0.59 C140.03 -0.95, 134.72 1.41, 134.91 3.3 M151.2 -0.21 C165.69 -1.35, 180.91 5.81, 195.01 10.78 C209.11 15.75, 223.82 21.08, 235.78 29.6 C247.75 38.11, 259.36 49.95, 266.81 61.87 C274.26 73.79, 278.03 88.18, 280.49 101.13 C282.95 114.07, 283.53 126.86, 281.57 139.55 C279.61 152.24, 275.4 165.66, 268.71 177.27 C262.02 188.87, 252.49 199.67, 241.4 209.17 C230.32 218.67, 216.22 228.72, 202.19 234.25 C188.16 239.77, 172.72 241.16, 157.21 242.3 C141.7 243.44, 124.25 244.01, 109.16 241.09 C94.06 238.17, 79.66 232, 66.63 224.8 C53.59 217.59, 40.63 207.97, 30.97 197.86 C21.31 187.76, 13.6 176.55, 8.66 164.18 C3.72 151.8, 1.71 136.81, 1.3 123.61 C0.9 110.4, 1.81 97.16, 6.23 84.95 C10.64 72.74, 18.27 60.82, 27.79 50.35 C37.31 39.88, 50.32 29.64, 63.34 22.14 C76.35 14.64, 91.21 9.09, 105.86 5.34 C120.52 1.6, 143.99 0.31, 151.28 -0.33 C158.58 -0.98, 150.03 -0.46, 149.65 1.48" stroke="#1971c2" stroke-width="2" fill="none"></path></g><g transform="translate(2171.012970458826 1108.6151852352377) rotate(0 30.113990783691406 17.5)"><text x="0" y="24.528" font-family="Virgil, Segoe UI Emoji" font-size="28px" fill="#1971c2" text-anchor="start" style="white-space: pre;" direction="ltr" dominant-baseline="alphabetic">CDB</text></g><g stroke-linecap="round" transform="translate(2133.0684602992706 1157.6268441913307) rotate(0 49.406914270254674 44.66385050031039)"><path d="M38.31 1.26 C46.57 -0.93, 58.63 -0.77, 66.97 2.13 C75.31 5.03, 83.11 12.08, 88.34 18.67 C93.57 25.26, 97.69 33.75, 98.35 41.66 C99 49.58, 96.62 58.98, 92.29 66.17 C87.95 73.37, 79.96 81.16, 72.36 84.85 C64.76 88.53, 55.43 89.13, 46.69 88.28 C37.94 87.42, 27.01 84.51, 19.89 79.71 C12.77 74.91, 6.9 66.93, 3.95 59.49 C0.99 52.04, 0.31 42.82, 2.16 35.03 C4.02 27.24, 8.06 18.65, 15.1 12.74 C22.13 6.84, 38.6 1.61, 44.35 -0.4 C50.11 -2.41, 49.65 -0.01, 49.62 0.68 M50.22 -0.4 C58.38 -1.31, 67.46 1.75, 74.61 6.34 C81.76 10.93, 89.32 19.87, 93.12 27.12 C96.92 34.38, 98.59 42.08, 97.4 49.87 C96.2 57.66, 91.44 67.82, 85.95 73.88 C80.45 79.94, 72.6 83.97, 64.41 86.24 C56.22 88.51, 45.54 89.72, 36.81 87.51 C28.07 85.31, 18.25 79.23, 12 73.03 C5.74 66.83, 0.8 58.05, -0.72 50.31 C-2.24 42.56, -0.93 33.97, 2.86 26.56 C6.65 19.15, 14.43 10.37, 22.02 5.82 C29.6 1.28, 43.99 -0.03, 48.36 -0.69 C52.72 -1.35, 48.29 1.11, 48.21 1.87" stroke="#1971c2" stroke-width="2" fill="none"></path></g><g transform="translate(2148.0881622374277 1192.40931183759) rotate(0 30.35198974609375 17.5)"><text x="0" y="24.528" font-family="Virgil, Segoe UI Emoji" font-size="28px" fill="#1971c2" text-anchor="start" style="white-space: pre;" direction="ltr" dominant-baseline="alphabetic">PDB</text></g><g stroke-linecap="round" transform="translate(2252.830820490368 1150.907503850576) rotate(0 58.893041810143586 55.709489371675915)"><path d="M36.44 4.34 C44.1 0.31, 54.85 -0.2, 63.95 0.41 C73.06 1.01, 83.43 3.26, 91.06 7.95 C98.7 12.63, 105.22 20.91, 109.77 28.49 C114.32 36.08, 118.1 44.75, 118.35 53.45 C118.6 62.15, 115.41 72.84, 111.27 80.69 C107.12 88.54, 100.86 95.54, 93.49 100.53 C86.13 105.53, 75.98 109.45, 67.09 110.66 C58.21 111.88, 48.62 110.61, 40.18 107.83 C31.75 105.05, 22.89 100.17, 16.47 93.98 C10.05 87.79, 4.22 79.01, 1.69 70.68 C-0.84 62.35, -0.7 52.48, 1.27 44.01 C3.24 35.55, 7.1 26.71, 13.5 19.9 C19.9 13.09, 34.71 5.87, 39.69 3.16 C44.67 0.44, 43.25 2.81, 43.39 3.6 M40.64 3.22 C48.75 0.21, 60.14 0.62, 69.51 2.27 C78.88 3.91, 89.52 8.06, 96.84 13.08 C104.16 18.1, 110.05 24.49, 113.45 32.39 C116.84 40.28, 117.97 51.59, 117.2 60.47 C116.43 69.35, 113.61 78.47, 108.83 85.65 C104.06 92.83, 96.27 99.36, 88.54 103.54 C80.82 107.71, 71.39 110.36, 62.48 110.68 C53.57 111.01, 43.58 108.94, 35.08 105.47 C26.59 102, 17.09 96.44, 11.51 89.86 C5.94 83.28, 3.27 74.35, 1.65 65.99 C0.02 57.62, -0.85 48, 1.77 39.65 C4.39 31.3, 10.98 22.18, 17.38 15.91 C23.77 9.65, 36.16 4.24, 40.16 2.05 C44.16 -0.15, 40.92 1.95, 41.39 2.75" stroke="#1971c2" stroke-width="2" fill="none"></path></g><g transform="translate(2281.2282033257625 1189.2244355111) rotate(0 30.35198974609375 17.5)"><text x="30.35198974609375" y="24.528" font-family="Virgil, Segoe UI Emoji" font-size="28px" fill="#1971c2" text-anchor="middle" style="white-space: pre;" direction="ltr" dominant-baseline="alphabetic">PDB</text></g><g transform="translate(2144.9261197241312 1320.4720336260907) rotate(0 104.15995788574219 17.5)"><text x="0" y="24.528" font-family="Virgil, Segoe UI Emoji" font-size="28px" fill="#1971c2" text-anchor="start" style="white-space: pre;" direction="ltr" dominant-baseline="alphabetic">instance oracle</text></g><g transform="translate(2174.9655236004464 1375.807777608776) rotate(0 107.12796020507812 35)"><text x="0" y="24.528" font-family="Virgil, Segoe UI Emoji" font-size="28px" fill="#1971c2" text-anchor="start" style="white-space: pre;" direction="ltr" dominant-baseline="alphabetic">opt v12 =&gt; v19</text><text x="0" y="59.528" font-family="Virgil, Segoe UI Emoji" font-size="28px" fill="#1971c2" text-anchor="start" style="white-space: pre;" direction="ltr" dominant-baseline="alphabetic">mandatory v21+</text></g><g transform="translate(397.23656286945806 2908.769426667031) rotate(0 59.80796813964844 17.5)"><text x="0" y="24.528" font-family="Virgil, Segoe UI Emoji" font-size="28px" fill="#1e1e1e" text-anchor="start" style="white-space: pre;" direction="ltr" dominant-baseline="alphabetic">Selection</text></g><g stroke-linecap="round" transform="translate(587.2365628694581 2917.769426667031) rotate(0 200 183)"><path d="M32 0 C152.49 -1.99, 271.48 -0.62, 368 0 M32 0 C131.03 0.44, 230.24 1.24, 368 0 M368 0 C391.04 -0.18, 398.39 10.59, 400 32 M368 0 C388.28 0.47, 400.2 11.35, 400 32 M400 32 C401.96 124.74, 401.49 219.14, 400 334 M400 32 C402.09 116.31, 402.31 201.49, 400 334 M400 334 C398.33 355.83, 387.84 364.16, 368 366 M400 334 C398.9 356.08, 390.78 365.47, 368 366 M368 366 C239.62 368.06, 109.35 368.37, 32 366 M368 366 C246.36 365.64, 124.57 365.45, 32 366 M32 366 C12.22 365.95, 1.3 354.99, 0 334 M32 366 C11.59 368.27, 0.04 355.38, 0 334 M0 334 C2.3 223.58, 1.59 113.22, 0 32 M0 334 C-2.83 228.71, -2.09 121.67, 0 32 M0 32 C-0.51 12.14, 10.15 0.57, 32 0 M0 32 C-2.01 12.77, 8.53 -0.84, 32 0" stroke="#1e1e1e" stroke-width="2" fill="none"></path></g><g transform="translate(610.2365628694581 2949.769426667031) rotate(0 177.72991943359375 17.5)"><text x="0" y="24.528" font-family="Virgil, Segoe UI Emoji" font-size="28px" fill="#1e1e1e" text-anchor="start" style="white-space: pre;" direction="ltr" dominant-baseline="alphabetic">id  title year duration ....</text></g><g stroke-linecap="round"><g transform="translate(590.2365628694581 2989.769426667031) rotate(0 199.5 0.5)"><path d="M0.3 -0.07 C67.09 -0.16, 333.32 0.44, 399.83 0.43 M-1.01 -1.15 C65.78 -1.18, 332.69 1.38, 399.32 1.66" stroke="#1e1e1e" stroke-width="2" fill="none"></path></g></g><mask></mask><g stroke-linecap="round" transform="translate(586.3495824871777 3054.423793134286) rotate(0 200.3888329991181 53.867965859978085)"><path d="M26.93 0 C104.64 -1.81, 182.69 -2.92, 373.84 0 M26.93 0 C110.77 -0.9, 193.87 -1.41, 373.84 0 M373.84 0 C393.07 0.56, 400.1 8.6, 400.78 26.93 M373.84 0 C391.93 0.81, 399.68 9.67, 400.78 26.93 M400.78 26.93 C400.74 46.09, 399.95 64.48, 400.78 80.8 M400.78 26.93 C400.29 48.01, 400.07 69.65, 400.78 80.8 M400.78 80.8 C401.42 99.16, 393.61 108.6, 373.84 107.74 M400.78 80.8 C401.23 97.55, 393.81 106.25, 373.84 107.74 M373.84 107.74 C245.11 105.14, 115.78 105.32, 26.93 107.74 M373.84 107.74 C254.96 108.1, 135.14 108.86, 26.93 107.74 M26.93 107.74 C9.25 109.6, 1.41 98.68, 0 80.8 M26.93 107.74 C9.78 109.52, -0.97 98.01, 0 80.8 M0 80.8 C0.07 67.19, -1.09 52.21, 0 26.93 M0 80.8 C0.54 65.19, -0.36 49.67, 0 26.93 M0 26.93 C1.88 9.08, 10.42 -0.17, 26.93 0 M0 26.93 C-1.7 8.79, 10.7 0.69, 26.93 0" stroke="#1971c2" stroke-width="2" fill="none"></path></g><g stroke-linecap="round"><g transform="translate(944.0328757974316 3107.573519449464) rotate(0 54.58620540477773 0)"><path d="M0.61 0.68 C18.71 0.47, 90.73 -0.96, 108.74 -1.02 M-0.53 -0.01 C17.36 -0.12, 89.54 -0.32, 107.57 -0.02" stroke="#1971c2" stroke-width="2" fill="none"></path></g><g transform="translate(944.0328757974316 3107.573519449464) rotate(0 54.58620540477773 0)"><path d="M84.03 8.4 C92.54 4.92, 97.1 2.13, 107.57 -0.02 M84.03 8.4 C92.02 6.19, 99.52 3.53, 107.57 -0.02" stroke="#1971c2" stroke-width="2" fill="none"></path></g><g transform="translate(944.0328757974316 3107.573519449464) rotate(0 54.58620540477773 0)"><path d="M84.12 -8.7 C92.63 -6.81, 97.16 -4.23, 107.57 -0.02 M84.12 -8.7 C91.94 -5.33, 99.42 -2.41, 107.57 -0.02" stroke="#1971c2" stroke-width="2" fill="none"></path></g></g><mask></mask><g transform="translate(1064.6971193237823 3097.518165822268) rotate(0 160.42593383789062 35)"><text x="0" y="24.528" font-family="Virgil, Segoe UI Emoji" font-size="28px" fill="#1971c2" text-anchor="start" style="white-space: pre;" direction="ltr" dominant-baseline="alphabetic">garde les lignes </text><text x="0" y="59.528" font-family="Virgil, Segoe UI Emoji" font-size="28px" fill="#1971c2" text-anchor="start" style="white-space: pre;" direction="ltr" dominant-baseline="alphabetic">où le prédicat est vrai</text></g><g stroke-linecap="round" transform="translate(471.8725667488906 1048.9234468819034) rotate(0 36.267691422952225 26.505853528595367)"><path d="M23.79 1.91 C30.76 -0.15, 42.74 0.43, 50.01 2.24 C57.28 4.06, 63.89 7.76, 67.4 12.8 C70.91 17.83, 72.59 26.6, 71.07 32.44 C69.54 38.28, 64.3 44.36, 58.24 47.84 C52.19 51.32, 42.33 53.43, 34.76 53.29 C27.19 53.16, 18.7 50.84, 12.83 47.04 C6.96 43.24, 0.95 36.05, -0.47 30.48 C-1.88 24.91, -0.47 18.6, 4.33 13.64 C9.13 8.68, 23.68 2.93, 28.34 0.74 C33.01 -1.44, 32.2 -0.01, 32.34 0.51 M27.72 -0.33 C35.08 -1.94, 45.98 0.65, 52.97 3.1 C59.97 5.55, 66.59 9.38, 69.71 14.36 C72.83 19.33, 73.97 27.38, 71.71 32.94 C69.44 38.49, 62.36 44.48, 56.1 47.7 C49.83 50.92, 41.83 52.53, 34.13 52.24 C26.43 51.96, 15.51 49.93, 9.87 45.99 C4.23 42.05, 0.9 34.41, 0.3 28.6 C-0.3 22.78, 1.88 15.91, 6.26 11.09 C10.65 6.28, 23.32 1.45, 26.6 -0.31 C29.89 -2.07, 25.73 0.14, 25.97 0.54" stroke="#1971c2" stroke-width="1" fill="none"></path></g><g transform="translate(490.63513464773513 1065.1868316392915) rotate(0 17.35999298095703 10)"><text x="17.35999298095703" y="14.016" font-family="Virgil, Segoe UI Emoji" font-size="16px" fill="#1971c2" text-anchor="middle" style="white-space: pre;" direction="ltr" dominant-baseline="alphabetic">ORM</text></g><g transform="translate(341.97260008367635 1162.7044395813612) rotate(0 122.99192810058594 60)"><text x="0" y="14.016" font-family="Virgil, Segoe UI Emoji" font-size="16px" fill="#1971c2" text-anchor="start" style="white-space: pre;" direction="ltr" dominant-baseline="alphabetic">ORM: Object Relational Mapper</text><text x="0" y="34.016" font-family="Virgil, Segoe UI Emoji" font-size="16px" fill="#1971c2" text-anchor="start" style="white-space: pre;" direction="ltr" dominant-baseline="alphabetic">- Hibernate (Java)</text><text x="0" y="54.016" font-family="Virgil, Segoe UI Emoji" font-size="16px" fill="#1971c2" text-anchor="start" style="white-space: pre;" direction="ltr" dominant-baseline="alphabetic">- Doctrine (Php)</text><text x="0" y="74.016" font-family="Virgil, Segoe UI Emoji" font-size="16px" fill="#1971c2" text-anchor="start" style="white-space: pre;" direction="ltr" dominant-baseline="alphabetic">- SqlAlchemy (python)</text><text x="0" y="94.016" font-family="Virgil, Segoe UI Emoji" font-size="16px" fill="#1971c2" text-anchor="start" style="white-space: pre;" direction="ltr" dominant-baseline="alphabetic">- DjnagoOrm (python)</text><text x="0" y="114.016" font-family="Virgil, Segoe UI Emoji" font-size="16px" fill="#1971c2" text-anchor="start" style="white-space: pre;" direction="ltr" dominant-baseline="alphabetic">- Entity Framework (.NET)</text></g><g transform="translate(527.3681952584411 3333.276018927084) rotate(0 180.95989990234375 80)"><text x="0" y="14.016" font-family="Virgil, Segoe UI Emoji" font-size="16px" fill="#1e1e1e" text-anchor="start" style="white-space: pre;" direction="ltr" dominant-baseline="alphabetic">Indexes</text><text x="0" y="34.016" font-family="Virgil, Segoe UI Emoji" font-size="16px" fill="#1e1e1e" text-anchor="start" style="white-space: pre;" direction="ltr" dominant-baseline="alphabetic">reduire le temps de recherche: where id = 599</text><text x="0" y="54.016" font-family="Virgil, Segoe UI Emoji" font-size="16px" fill="#1e1e1e" text-anchor="start" style="white-space: pre;" direction="ltr" dominant-baseline="alphabetic">taille table = N =&gt; log(N)</text><text x="0" y="74.016" font-family="Virgil, Segoe UI Emoji" font-size="16px" fill="#1e1e1e" text-anchor="start" style="white-space: pre;" direction="ltr" dominant-baseline="alphabetic">        N = 1000  =&gt;  10</text><text x="0" y="94.016" font-family="Virgil, Segoe UI Emoji" font-size="16px" fill="#1e1e1e" text-anchor="start" style="white-space: pre;" direction="ltr" dominant-baseline="alphabetic">        N = 1M =&gt; 20</text><text x="0" y="114.016" font-family="Virgil, Segoe UI Emoji" font-size="16px" fill="#1e1e1e" text-anchor="start" style="white-space: pre;" direction="ltr" dominant-baseline="alphabetic">        N = 1G =&gt; 30</text><text x="0" y="134.016" font-family="Virgil, Segoe UI Emoji" font-size="16px" fill="#1e1e1e" text-anchor="start" style="white-space: pre;" direction="ltr" dominant-baseline="alphabetic">        N = 1T =&gt; 40</text><text x="0" y="154.016" font-family="Virgil, Segoe UI Emoji" font-size="16px" fill="#1e1e1e" text-anchor="start" style="white-space: pre;" direction="ltr" dominant-baseline="alphabetic"></text></g><g transform="translate(1627.5437469592082 1560.1454322380337) rotate(0 204.20456983276313 39.56945240611708)"><text x="0" y="13.86513612310343" font-family="Virgil, Segoe UI Emoji" font-size="15.827780962446838px" fill="#1e1e1e" text-anchor="start" style="white-space: pre;" direction="ltr" dominant-baseline="alphabetic">Encoding:</text><text x="0" y="33.64986232616198" font-family="Virgil, Segoe UI Emoji" font-size="15.827780962446838px" fill="#1e1e1e" text-anchor="start" style="white-space: pre;" direction="ltr" dominant-baseline="alphabetic">- latin 1 = ISO-8859-1</text><text x="0" y="53.43458852922052" font-family="Virgil, Segoe UI Emoji" font-size="15.827780962446838px" fill="#1e1e1e" text-anchor="start" style="white-space: pre;" direction="ltr" dominant-baseline="alphabetic">- ISO-8859-1 (€, œ, Ÿ)</text><text x="0" y="73.21931473227907" font-family="Virgil, Segoe UI Emoji" font-size="15.827780962446838px" fill="#1e1e1e" text-anchor="start" style="white-space: pre;" direction="ltr" dominant-baseline="alphabetic">- cp1252 "ANSI" (€, œ, Ÿ) </text></g><g transform="translate(29.3340363025668 60.63590865299727) rotate(0 60.399940490722656 12.5)"><text x="0" y="17.52" font-family="Virgil, Segoe UI Emoji" font-size="20px" fill="#1e1e1e" text-anchor="start" style="white-space: pre;" direction="ltr" dominant-baseline="alphabetic">Histoire SQL</text></g><g transform="translate(84.58426845392916 100.6875771394349) rotate(0 240.02981567382812 12.5)"><text x="0" y="17.52" font-family="Virgil, Segoe UI Emoji" font-size="20px" fill="#1e1e1e" text-anchor="start" style="white-space: pre;" direction="ltr" dominant-baseline="alphabetic">1972-1974: Algèbre Relationnelle (Recherche IBM)</text></g><g transform="translate(84.58426845392916 135.6875771394349) rotate(0 289.01983642578125 12.5)"><text x="0" y="17.52" font-family="Virgil, Segoe UI Emoji" font-size="20px" fill="#1e1e1e" text-anchor="start" style="white-space: pre;" direction="ltr" dominant-baseline="alphabetic">1975 : SEQUEL =&gt; SQL (Structured Query Language), IBM</text></g><g transform="translate(84.58426845392916 170.6875771394349) rotate(0 281.96978759765625 12.5)"><text x="0" y="17.52" font-family="Virgil, Segoe UI Emoji" font-size="20px" fill="#1e1e1e" text-anchor="start" style="white-space: pre;" direction="ltr" dominant-baseline="alphabetic">1979 : Oracle Database, 1er SGBDR (RDBMS) commercial</text></g><g transform="translate(60.584268453929155 205.6875771394349) rotate(0 270.7997741699219 12.5)"><text x="0" y="17.52" font-family="Virgil, Segoe UI Emoji" font-size="20px" fill="#1e1e1e" text-anchor="start" style="white-space: pre;" direction="ltr" dominant-baseline="alphabetic">Système de Gestion de Base de Données Relationnelle</text></g><g transform="translate(60.584268453929155 240.6875771394349) rotate(0 40.50996398925781 12.5)"><text x="0" y="17.52" font-family="Virgil, Segoe UI Emoji" font-size="20px" fill="#1e1e1e" text-anchor="start" style="white-space: pre;" direction="ltr" dominant-baseline="alphabetic">Autres :</text></g><g transform="translate(88.58426845392916 275.6875771394349) rotate(0 129.88992309570312 12.5)"><text x="0" y="17.52" font-family="Virgil, Segoe UI Emoji" font-size="20px" fill="#1e1e1e" text-anchor="start" style="white-space: pre;" direction="ltr" dominant-baseline="alphabetic">IBM DB2 (1983), Informix</text></g><g transform="translate(88.58426845392916 310.6875771394349) rotate(0 141.22988891601562 12.5)"><text x="0" y="17.52" font-family="Virgil, Segoe UI Emoji" font-size="20px" fill="#1e1e1e" text-anchor="start" style="white-space: pre;" direction="ltr" dominant-baseline="alphabetic">Microsoft SQL Server (1989)</text></g><g transform="translate(88.58426845392916 345.6875771394349) rotate(0 179.04989624023438 25)"><text x="0" y="17.52" font-family="Virgil, Segoe UI Emoji" font-size="20px" fill="#1e1e1e" text-anchor="start" style="white-space: pre;" direction="ltr" dominant-baseline="alphabetic">MySQL (1995, racheté par Oracle) </text><text x="0" y="42.519999999999996" font-family="Virgil, Segoe UI Emoji" font-size="20px" fill="#1e1e1e" text-anchor="start" style="white-space: pre;" direction="ltr" dominant-baseline="alphabetic">    /  MariaDB (2009, OpenSource)</text></g><g transform="translate(88.58426845392916 400.6875771394349) rotate(0 180.25985717773438 12.5)"><text x="0" y="17.52" font-family="Virgil, Segoe UI Emoji" font-size="20px" fill="#1e1e1e" text-anchor="start" style="white-space: pre;" direction="ltr" dominant-baseline="alphabetic">PostgreSQL (1989/1995, OpenSource)</text></g><g transform="translate(55.92709769969224 473.8290706554384) rotate(0 69.53995513916016 12.5)"><text x="0" y="17.52" font-family="Virgil, Segoe UI Emoji" font-size="20px" fill="#1e1e1e" text-anchor="start" style="white-space: pre;" direction="ltr" dominant-baseline="alphabetic">Standard SQL</text></g><g transform="translate(840.7203777589773 64.19882706097826) rotate(0 255.06983947753906 12.5)"><text x="0" y="17.52" font-family="Virgil, Segoe UI Emoji" font-size="20px" fill="#1e1e1e" text-anchor="start" style="white-space: pre;" direction="ltr" dominant-baseline="alphabetic">1979 - Oracle V2 by Relational Software Inc. (RSI)</text></g><g transform="translate(840.7203777589773 99.19882706097826) rotate(0 304.33978271484375 12.5)"><text x="0" y="17.52" font-family="Virgil, Segoe UI Emoji" font-size="20px" fill="#1e1e1e" text-anchor="start" style="white-space: pre;" direction="ltr" dominant-baseline="alphabetic">1983 - Oracle V3 (rewritten in C), RSI =&gt; Oracle Corporation</text></g><g transform="translate(840.7203777589773 134.19882706097826) rotate(0 84.87994384765625 12.5)"><text x="0" y="17.52" font-family="Virgil, Segoe UI Emoji" font-size="20px" fill="#1e1e1e" text-anchor="start" style="white-space: pre;" direction="ltr" dominant-baseline="alphabetic">1984 - Oracle V4</text></g><g transform="translate(840.7203777589773 169.19882706097826) rotate(0 84.43994140625 12.5)"><text x="0" y="17.52" font-family="Virgil, Segoe UI Emoji" font-size="20px" fill="#1e1e1e" text-anchor="start" style="white-space: pre;" direction="ltr" dominant-baseline="alphabetic">1985 - Oracle V5</text></g><g transform="translate(840.7203777589773 204.19882706097826) rotate(0 151.71990966796875 12.5)"><text x="0" y="17.52" font-family="Virgil, Segoe UI Emoji" font-size="20px" fill="#1e1e1e" text-anchor="start" style="white-space: pre;" direction="ltr" dominant-baseline="alphabetic">1988 - Oracle V6 with PL/SQL</text></g><g transform="translate(840.7203777589773 239.19882706097826) rotate(0 262.34979248046875 12.5)"><text x="0" y="17.52" font-family="Virgil, Segoe UI Emoji" font-size="20px" fill="#1e1e1e" text-anchor="start" style="white-space: pre;" direction="ltr" dominant-baseline="alphabetic">1992 - Oracle 7 with Stored Procedures and triggers</text></g><g transform="translate(840.7203777589773 274.19882706097826) rotate(0 98.44994354248047 12.5)"><text x="0" y="17.52" font-family="Virgil, Segoe UI Emoji" font-size="20px" fill="#1e1e1e" text-anchor="start" style="white-space: pre;" direction="ltr" dominant-baseline="alphabetic">1997 - Oracle DB 8</text></g><g transform="translate(840.7203777589773 309.19882706097826) rotate(0 160.30987548828125 12.5)"><text x="0" y="17.52" font-family="Virgil, Segoe UI Emoji" font-size="20px" fill="#1e1e1e" text-anchor="start" style="white-space: pre;" direction="ltr" dominant-baseline="alphabetic">1999 - Oracle DB 8i (i=internet)</text></g><g transform="translate(840.7203777589773 344.19882706097826) rotate(0 102.39994049072266 12.5)"><text x="0" y="17.52" font-family="Virgil, Segoe UI Emoji" font-size="20px" fill="#1e1e1e" text-anchor="start" style="white-space: pre;" direction="ltr" dominant-baseline="alphabetic">2001 - Oracle DB 9i</text></g><g transform="translate(840.7203777589773 379.19882706097826) rotate(0 153.71990966796875 12.5)"><text x="0" y="17.52" font-family="Virgil, Segoe UI Emoji" font-size="20px" fill="#1e1e1e" text-anchor="start" style="white-space: pre;" direction="ltr" dominant-baseline="alphabetic">2003 - Oracle DB 10g (g=grid)</text></g><g transform="translate(840.7203777589773 414.19882706097826) rotate(0 317.9198303222656 12.5)"><text x="0" y="17.52" font-family="Virgil, Segoe UI Emoji" font-size="20px" fill="#1e1e1e" text-anchor="start" style="white-space: pre;" direction="ltr" dominant-baseline="alphabetic">2005 - Oracle DB 10g R2 (10.2) and 10g Express Edition (free)</text></g><g transform="translate(840.7203777589773 449.19882706097826) rotate(0 107.21994018554688 12.5)"><text x="0" y="17.52" font-family="Virgil, Segoe UI Emoji" font-size="20px" fill="#1e1e1e" text-anchor="start" style="white-space: pre;" direction="ltr" dominant-baseline="alphabetic">2007 - Oracle DB 11g</text></g><g transform="translate(840.7203777589773 484.19882706097826) rotate(0 154.63990783691406 12.5)"><text x="0" y="17.52" font-family="Virgil, Segoe UI Emoji" font-size="20px" fill="#1e1e1e" text-anchor="start" style="white-space: pre;" direction="ltr" dominant-baseline="alphabetic">2009 - Oracle DB 11g R2 (11.2)</text></g><g transform="translate(840.7203777589773 519.1988270609783) rotate(0 157.17990112304688 12.5)"><text x="0" y="17.52" font-family="Virgil, Segoe UI Emoji" font-size="20px" fill="#1e1e1e" text-anchor="start" style="white-space: pre;" direction="ltr" dominant-baseline="alphabetic">2013 - Oracle DB 12c (c=cloud)</text></g><g transform="translate(840.7203777589773 554.1988270609783) rotate(0 158.58990478515625 12.5)"><text x="0" y="17.52" font-family="Virgil, Segoe UI Emoji" font-size="20px" fill="#1e1e1e" text-anchor="start" style="white-space: pre;" direction="ltr" dominant-baseline="alphabetic">2017 - Oracle DB 12c R2 (12.2)</text></g><g transform="translate(840.7203777589773 589.1988270609783) rotate(0 219.19984436035156 12.5)"><text x="0" y="17.52" font-family="Virgil, Segoe UI Emoji" font-size="20px" fill="#1e1e1e" text-anchor="start" style="white-space: pre;" direction="ltr" dominant-baseline="alphabetic">2018 - Oracle DB 18c (i.e. update 12.2.0.2)</text></g><g transform="translate(840.7203777589773 624.1988270609783) rotate(0 139.7899169921875 12.5)"><text x="0" y="17.52" font-family="Virgil, Segoe UI Emoji" font-size="20px" fill="#1e1e1e" text-anchor="start" style="white-space: pre;" direction="ltr" dominant-baseline="alphabetic">2019 - Oracle DB 19c (LTS)</text></g><g transform="translate(840.7203777589773 659.1988270609783) rotate(0 109.2099380493164 12.5)"><text x="0" y="17.52" font-family="Virgil, Segoe UI Emoji" font-size="20px" fill="#1e1e1e" text-anchor="start" style="white-space: pre;" direction="ltr" dominant-baseline="alphabetic">2021 - Oracle DB 21c</text></g><g transform="translate(767.1256161437018 23.215724423693246) rotate(0 89.72992706298828 12.5)"><text x="0" y="17.52" font-family="Virgil, Segoe UI Emoji" font-size="20px" fill="#1e1e1e" text-anchor="start" style="white-space: pre;" direction="ltr" dominant-baseline="alphabetic">Oracle DB History</text></g><g transform="translate(56.57826116489724 779.3138455805372) rotate(0 187.39984130859375 12.5)"><text x="0" y="17.52" font-family="Virgil, Segoe UI Emoji" font-size="20px" fill="#1e1e1e" text-anchor="start" style="white-space: pre;" direction="ltr" dominant-baseline="alphabetic">Les éditeurs suivent +/- ce standard</text></g><g transform="translate(54.40440241342071 816.2153736209318) rotate(0 281.259765625 12.5)"><text x="0" y="17.52" font-family="Virgil, Segoe UI Emoji" font-size="20px" fill="#1e1e1e" text-anchor="start" style="white-space: pre;" direction="ltr" dominant-baseline="alphabetic">https://en.wikipedia.org/wiki/SQL#Standardization_history</text></g><g stroke-linecap="round" transform="translate(10 37.71740065023755) rotate(0 332.6088078028515 202.60099999102266)"><path d="M32 0 C187.94 -0.2, 344.19 -0.63, 633.22 0 M32 0 C202.09 -0.35, 371.55 -0.42, 633.22 0 M633.22 0 C654.35 -1.84, 666.84 9.69, 665.22 32 M633.22 0 C652.49 0.89, 666.92 9.18, 665.22 32 M665.22 32 C664.25 116.56, 663.74 201.56, 665.22 373.2 M665.22 32 C665.42 141.44, 665.18 252.12, 665.22 373.2 M665.22 373.2 C664.7 392.94, 656.33 405.51, 633.22 405.2 M665.22 373.2 C666.38 393.9, 656.14 405.06, 633.22 405.2 M633.22 405.2 C416.92 403.24, 200.85 403.42, 32 405.2 M633.22 405.2 C486.43 407.42, 339.48 407.38, 32 405.2 M32 405.2 C11.88 405.69, -1.57 395.05, 0 373.2 M32 405.2 C8.49 404.21, 1.79 396.07, 0 373.2 M0 373.2 C0.75 259.91, 2.59 146.9, 0 32 M0 373.2 C-0.12 266.18, -0.09 160.18, 0 32 M0 32 C-1.73 8.75, 11.07 0.58, 32 0 M0 32 C0.92 10.78, 11.46 0.81, 32 0" stroke="#f08c00" stroke-width="1" fill="none"></path></g><g stroke-linecap="round" transform="translate(19.239133550079202 458.7579152895616) rotate(0 326.38683508751444 195.11602115847256)"><path d="M32 0 C222.86 1.48, 413.41 0.83, 620.77 0 M32 0 C213.37 -2.29, 394.88 -1.71, 620.77 0 M620.77 0 C641.3 -1.03, 653.84 10.08, 652.77 32 M620.77 0 C639.88 -0.8, 653.47 9.32, 652.77 32 M652.77 32 C652.98 115.03, 653.54 195.4, 652.77 358.23 M652.77 32 C652.85 145.93, 651.84 261.12, 652.77 358.23 M652.77 358.23 C652.88 379.66, 643.34 390.52, 620.77 390.23 M652.77 358.23 C652.27 381.79, 641.8 388.47, 620.77 390.23 M620.77 390.23 C476.63 388.95, 333.13 388.74, 32 390.23 M620.77 390.23 C467.6 389.37, 314.07 388.91, 32 390.23 M32 390.23 C11.2 391.71, -0.75 379.31, 0 358.23 M32 390.23 C9.2 391.53, -2.27 378.57, 0 358.23 M0 358.23 C-1.39 271.78, 0.44 185.51, 0 32 M0 358.23 C-0.27 272.92, -0.77 186.44, 0 32 M0 32 C-0.77 8.79, 9.29 1.74, 32 0 M0 32 C-0.13 9.24, 9.18 -0.54, 32 0" stroke="#f08c00" stroke-width="1" fill="none"></path></g><g stroke-linecap="round" transform="translate(751.7704364492165 10) rotate(0 374.18490877820807 342.50787946365074)"><path d="M32 0 C199.62 -2.44, 367.75 -1.65, 716.37 0 M32 0 C286.06 -0.14, 540.54 -0.26, 716.37 0 M716.37 0 C739.44 -0.11, 747.13 9.37, 748.37 32 M716.37 0 C737.16 -1.87, 748.56 12.42, 748.37 32 M748.37 32 C748.73 276.6, 748.7 520.43, 748.37 653.02 M748.37 32 C747.34 228.31, 747.24 424.21, 748.37 653.02 M748.37 653.02 C747.17 674.76, 737.26 685.7, 716.37 685.02 M748.37 653.02 C750.15 672.85, 736.56 686.18, 716.37 685.02 M716.37 685.02 C522 684.9, 327.78 685.59, 32 685.02 M716.37 685.02 C558.8 682.9, 401.81 682.98, 32 685.02 M32 685.02 C10.08 683.29, 0.56 674.54, 0 653.02 M32 685.02 C12.63 683.64, -2.28 672.92, 0 653.02 M0 653.02 C-0.37 447.48, -1.29 242.2, 0 32 M0 653.02 C-0.16 426.86, -0.02 200.42, 0 32 M0 32 C1.52 12.28, 9.21 -1.7, 32 0 M0 32 C0.65 9.23, 11.21 2.18, 32 0" stroke="#f08c00" stroke-width="1" fill="none"></path></g><g transform="translate(95.2608511849275 507.1628222084161) rotate(0 149.76988220214844 12.5)"><text x="0" y="17.52" font-family="Virgil, Segoe UI Emoji" font-size="20px" fill="#1e1e1e" text-anchor="start" style="white-space: pre;" direction="ltr" dominant-baseline="alphabetic">1986 1ere version du standard</text></g><g transform="translate(95.2608511849275 542.1628222084162) rotate(0 6.769996643066406 12.5)"><text x="0" y="17.52" font-family="Virgil, Segoe UI Emoji" font-size="20px" fill="#1e1e1e" text-anchor="start" style="white-space: pre;" direction="ltr" dominant-baseline="alphabetic">…</text></g><g transform="translate(95.2608511849275 577.1628222084162) rotate(0 174.4298553466797 12.5)"><text x="0" y="17.52" font-family="Virgil, Segoe UI Emoji" font-size="20px" fill="#1e1e1e" text-anchor="start" style="white-space: pre;" direction="ltr" dominant-baseline="alphabetic">1999 code stocké, tableaux, objets</text></g><g transform="translate(92.99640083375351 615.1820893433148) rotate(0 263.85980224609375 12.5)"><text x="0" y="17.52" font-family="Virgil, Segoe UI Emoji" font-size="20px" fill="#1e1e1e" text-anchor="start" style="white-space: pre;" direction="ltr" dominant-baseline="alphabetic">2003 fonctions analytiques (window functions) + XML</text></g><g transform="translate(95.2608511849275 647.1628222084162) rotate(0 6.769996643066406 12.5)"><text x="0" y="17.52" font-family="Virgil, Segoe UI Emoji" font-size="20px" fill="#1e1e1e" text-anchor="start" style="white-space: pre;" direction="ltr" dominant-baseline="alphabetic">…</text></g><g transform="translate(95.2608511849275 682.1628222084162) rotate(0 54.22996520996094 12.5)"><text x="0" y="17.52" font-family="Virgil, Segoe UI Emoji" font-size="20px" fill="#1e1e1e" text-anchor="start" style="white-space: pre;" direction="ltr" dominant-baseline="alphabetic">2016 JSON</text></g><g transform="translate(95.2608511849275 717.1628222084162) rotate(0 175.76986694335938 12.5)"><text x="0" y="17.52" font-family="Virgil, Segoe UI Emoji" font-size="20px" fill="#1e1e1e" text-anchor="start" style="white-space: pre;" direction="ltr" dominant-baseline="alphabetic">2023 dernière version du standard</text></g><g transform="translate(1585.489318940012 59.10581666227813) rotate(0 106.15990447998047 12.5)"><text x="0" y="17.52" font-family="Virgil, Segoe UI Emoji" font-size="20px" fill="#1e1e1e" text-anchor="start" style="white-space: pre;" direction="ltr" dominant-baseline="alphabetic">Microsoft SQL Server</text></g><g transform="translate(1635.5767403175134 103.6400069020334) rotate(0 156.3298797607422 12.5)"><text x="0" y="17.52" font-family="Virgil, Segoe UI Emoji" font-size="20px" fill="#1e1e1e" text-anchor="start" style="white-space: pre;" direction="ltr" dominant-baseline="alphabetic">Associé à Sybase à la création</text></g><g transform="translate(1635.5767403175134 138.6400069020334) rotate(0 77.69994354248047 12.5)"><text x="0" y="17.52" font-family="Virgil, Segoe UI Emoji" font-size="20px" fill="#1e1e1e" text-anchor="start" style="white-space: pre;" direction="ltr" dominant-baseline="alphabetic">1989 version 1.0</text></g><g transform="translate(1635.5767403175134 173.6400069020334) rotate(0 6.769996643066406 12.5)"><text x="0" y="17.52" font-family="Virgil, Segoe UI Emoji" font-size="20px" fill="#1e1e1e" text-anchor="start" style="white-space: pre;" direction="ltr" dominant-baseline="alphabetic">…</text></g><g transform="translate(1635.5767403175134 208.6400069020334) rotate(0 177.91989135742188 12.5)"><text x="0" y="17.52" font-family="Virgil, Segoe UI Emoji" font-size="20px" fill="#1e1e1e" text-anchor="start" style="white-space: pre;" direction="ltr" dominant-baseline="alphabetic">2012 version 11.0 : SQL Server 2012</text></g><g transform="translate(1635.5767403175134 243.6400069020334) rotate(0 180.88987731933594 12.5)"><text x="0" y="17.52" font-family="Virgil, Segoe UI Emoji" font-size="20px" fill="#1e1e1e" text-anchor="start" style="white-space: pre;" direction="ltr" dominant-baseline="alphabetic">2014 version 12.0 : SQL Server 2014</text></g><g transform="translate(1635.5767403175134 278.6400069020334) rotate(0 180.5798797607422 12.5)"><text x="0" y="17.52" font-family="Virgil, Segoe UI Emoji" font-size="20px" fill="#1e1e1e" text-anchor="start" style="white-space: pre;" direction="ltr" dominant-baseline="alphabetic">2016 version 13.0 : SQL Server 2016</text></g><g transform="translate(1635.5767403175134 313.6400069020334) rotate(0 178.1298828125 12.5)"><text x="0" y="17.52" font-family="Virgil, Segoe UI Emoji" font-size="20px" fill="#1e1e1e" text-anchor="start" style="white-space: pre;" direction="ltr" dominant-baseline="alphabetic">2017 version 14.0 : SQL Server 2017</text></g><g transform="translate(1635.5767403175134 348.6400069020334) rotate(0 179.3298797607422 12.5)"><text x="0" y="17.52" font-family="Virgil, Segoe UI Emoji" font-size="20px" fill="#1e1e1e" text-anchor="start" style="white-space: pre;" direction="ltr" dominant-baseline="alphabetic">2019 version 15.0 : SQL Server 2019</text></g><g transform="translate(1635.5767403175134 383.6400069020334) rotate(0 190.42987060546875 12.5)"><text x="0" y="17.52" font-family="Virgil, Segoe UI Emoji" font-size="20px" fill="#1e1e1e" text-anchor="start" style="white-space: pre;" direction="ltr" dominant-baseline="alphabetic">2022 version 16.0 : SQL Server 2022</text></g><g stroke-linecap="round" transform="translate(1570.0548941520112 13.253648050747529) rotate(0 253.6436262862253 208.2621730394526)"><path d="M32 0 C209.13 0.89, 386.48 1.08, 475.29 0 M32 0 C159.51 0.47, 286.2 0.17, 475.29 0 M475.29 0 C495.3 1.71, 505.32 10.75, 507.29 32 M475.29 0 C494.66 -1.77, 507.75 10.18, 507.29 32 M507.29 32 C505.82 141.08, 507.18 246.93, 507.29 384.52 M507.29 32 C507.52 120.64, 507.28 208.5, 507.29 384.52 M507.29 384.52 C507.74 405.43, 496.99 415.1, 475.29 416.52 M507.29 384.52 C508.75 405.04, 498.87 416.56, 475.29 416.52 M475.29 416.52 C328.92 415.71, 181.2 415.16, 32 416.52 M475.29 416.52 C331.65 417.95, 187.25 417.38, 32 416.52 M32 416.52 C11.52 418.08, 1.17 404.44, 0 384.52 M32 416.52 C10.56 417.43, 2.23 406.92, 0 384.52 M0 384.52 C0.83 314.35, 0.62 243.13, 0 32 M0 384.52 C-1.87 248.21, -1.56 111.45, 0 32 M0 32 C0.31 11.85, 10.9 1.95, 32 0 M0 32 C1.69 8.48, 11.92 1.85, 32 0" stroke="#f08c00" stroke-width="1" fill="none"></path></g><g transform="translate(1582.9268959047556 458.7897110530575) rotate(0 70.56995391845703 12.5)"><text x="0" y="17.52" font-family="Virgil, Segoe UI Emoji" font-size="20px" fill="#1e1e1e" text-anchor="start" style="white-space: pre;" direction="ltr" dominant-baseline="alphabetic">Transact SQL</text></g><g transform="translate(1582.9268959047556 528.7897110530575) rotate(0 240.41983032226562 12.5)"><text x="0" y="17.52" font-family="Virgil, Segoe UI Emoji" font-size="20px" fill="#1e1e1e" text-anchor="start" style="white-space: pre;" direction="ltr" dominant-baseline="alphabetic">SQL de MS SQL Server = Transact SQL (TSQL)</text></g><g transform="translate(1644.8426770786468 558.8645920960435) rotate(0 19.11998748779297 12.5)"><text x="0" y="17.52" font-family="Virgil, Segoe UI Emoji" font-size="20px" fill="#1e1e1e" text-anchor="start" style="white-space: pre;" direction="ltr" dominant-baseline="alphabetic">SQL</text></g><g transform="translate(1644.8426770786468 593.8645920960435) rotate(0 87.34992218017578 12.5)"><text x="0" y="17.52" font-family="Virgil, Segoe UI Emoji" font-size="20px" fill="#1e1e1e" text-anchor="start" style="white-space: pre;" direction="ltr" dominant-baseline="alphabetic">Types de données</text></g><g transform="translate(1644.8426770786468 628.8645920960435) rotate(0 68.5699462890625 12.5)"><text x="0" y="17.52" font-family="Virgil, Segoe UI Emoji" font-size="20px" fill="#1e1e1e" text-anchor="start" style="white-space: pre;" direction="ltr" dominant-baseline="alphabetic">Fonctions SQL</text></g><g transform="translate(1644.8426770786468 663.8645920960435) rotate(0 221.92977905273426 12.5)"><text x="0" y="17.52" font-family="Virgil, Segoe UI Emoji" font-size="20px" fill="#1e1e1e" text-anchor="start" style="white-space: pre;" direction="ltr" dominant-baseline="alphabetic">Code stocké (fonctions, procédures, triggers)</text></g><g stroke-linecap="round" transform="translate(1574.2764246865947 448.7748815352789) rotate(0 263.14206998903796 129.46026972722726)"><path d="M32 0 C162.29 0.26, 291.17 0.93, 494.28 0 M32 0 C173.43 -0.77, 313.88 -0.94, 494.28 0 M494.28 0 C515.68 1.11, 526.23 10.25, 526.28 32 M494.28 0 C516.66 -1.78, 528.34 9.23, 526.28 32 M526.28 32 C528.09 84.85, 528.74 134.91, 526.28 226.92 M526.28 32 C525.25 70.28, 524.82 109.8, 526.28 226.92 M526.28 226.92 C528.19 246.77, 513.9 259.76, 494.28 258.92 M526.28 226.92 C525.36 247.42, 516.82 260.96, 494.28 258.92 M494.28 258.92 C341.1 259.57, 186.39 259.48, 32 258.92 M494.28 258.92 C310.24 259.92, 126.84 259.92, 32 258.92 M32 258.92 C10.86 260.07, -1.06 247.39, 0 226.92 M32 258.92 C12.54 260.25, 0.43 247.01, 0 226.92 M0 226.92 C1.22 166.9, 2.95 105.13, 0 32 M0 226.92 C-0.09 159.23, 0.02 93.32, 0 32 M0 32 C0.8 11.92, 12.03 -0.15, 32 0 M0 32 C-0.86 12.49, 8.96 0.81, 32 0" stroke="#f08c00" stroke-width="1" fill="none"></path></g></svg>